PathFileType	4	(X/Y/Z)	D:\TRACE\spot_10-12-23\spot_arm_motion_2_5-v60.trc
DataRate	CameraRate	NumFrames	NumMarkers	Units	OrigDataRate	OrigDataStartFrame	OrigNumFrames
100.00	100.00	      35	9	mm	100.00	3501	      7000
Frame#	Time	front left toe			Front right toe			aft left toe			aft right toe			Arm			FL body			FR body			AL Body			AR Body			
		X1	Y1	Z1	X2	Y2	Z2	X3	Y3	Z3	X4	Y4	Z4	X5	Y5	Z5	X6	Y6	Z6	X7	Y7	Z7	X8	Y8	Z8	X9	Y9	Z9	

3501	35.000	-274.70667	16.23340	-16.35681	224.06902	22.25285	-3.08465	-273.76611	68.57022	581.63916	200.21289	67.42371	589.39850	-33.93983	753.90387	-727.99152	-123.92720	539.59235	-74.74094	28.73713	544.74915	-74.06294	-135.64368	617.71222	805.68164	14.93721	616.82336	809.40662	
3502	35.010	-273.94943	16.26114	-16.30944	225.20357	22.27791	-2.83495	-272.72867	67.96912	581.92407	201.00348	66.88052	589.63049	-33.27559	754.49817	-727.90692	-123.33746	539.28131	-74.83716	29.63427	544.29218	-74.04511	-135.30440	617.86499	805.50439	15.21172	616.90820	809.30304	
3503	35.020	-272.97394	16.53557	-16.04969	225.91571	22.43114	-2.67137	-271.70886	67.35908	582.09662	201.84932	66.59377	589.56024	-32.52323	755.21655	-727.84949	-122.81887	539.03601	-74.83453	30.06719	544.16675	-74.10003	-136.03596	618.69318	806.42950	15.50648	616.93689	809.29706	
3504	35.030	-271.45068	16.04970	-15.78251	226.86829	22.49545	-2.58603	-271.12872	67.04541	582.08893	202.87547	65.86483	589.77393	-32.01041	755.92462	-727.65259	-122.04857	538.76196	-74.80067	30.67603	543.90179	-73.77130	-135.16354	618.59589	805.37024	16.26450	616.91235	809.17920	
3505	35.040	-270.71194	16.15844	-15.61664	227.81313	22.69275	-2.42703	-269.93625	66.38273	582.14667	203.67532	65.58179	589.88678	-31.42682	756.50519	-727.65118	-121.37962	538.55743	-74.78532	31.25086	543.84631	-74.21606	-134.46504	618.67432	805.47162	17.07465	617.00006	809.04456	
3506	35.050	-270.03113	16.40957	-15.67857	228.78677	22.68262	-2.43816	-268.96762	65.75481	582.37390	204.78772	64.92339	590.24329	-30.99966	757.11835	-727.71069	-120.55567	538.25488	-74.94107	32.21059	543.47644	-74.24889	-132.77943	617.98187	805.35889	17.53984	617.10651	808.95093	
3507	35.060	-268.44501	16.06385	-15.28792	229.86908	22.71916	-2.22292	-268.00323	65.09981	582.68542	205.75459	64.55885	590.29999	-30.42521	757.45740	-727.73303	-119.90956	538.07025	-75.09933	32.78569	543.15662	-74.22636	-132.18307	618.00897	805.34076	17.84053	617.13379	808.95056	
3508	35.070	-267.45279	16.24084	-15.10574	230.80884	22.66924	-2.06465	-266.91040	64.40717	582.93018	207.04866	63.98072	590.62433	-30.13400	757.68390	-727.79718	-119.04681	537.80396	-75.19411	33.41156	543.08209	-74.16271	-131.67256	617.95898	805.35651	18.55767	617.08734	808.97284	
3509	35.080	-267.01126	16.72686	-15.14698	231.63414	22.84237	-1.84534	-266.10400	63.84896	582.81635	207.63013	63.17901	590.56891	-29.72460	757.86957	-727.83569	-118.25703	537.46442	-75.16642	34.40241	542.78784	-74.21763	-131.06123	617.89343	805.43390	19.23278	617.05005	808.96472	
3510	35.090	-265.43036	16.34365	-14.97403	232.72098	22.82647	-1.67521	-264.99170	63.02140	582.96863	208.53938	62.31022	590.81915	-29.26727	757.97687	-727.83453	-117.44205	537.11761	-75.19076	35.24028	542.50098	-73.93918	-130.94049	617.96887	804.94983	19.61193	617.04132	808.94208	
3511	35.100	-264.31543	16.45121	-14.58955	233.89574	22.99016	-1.62676	-263.95847	62.36427	583.25519	209.90048	61.75813	590.99829	-28.83220	757.97748	-727.77167	-116.43176	536.80750	-75.01495	36.43155	542.00403	-73.83207	-129.78368	617.76843	805.27740	20.70696	616.99756	809.19366	
3512	35.110	-264.13303	16.70087	-14.55850	234.78677	23.05510	-1.54691	-262.85278	61.64628	583.40869	210.73180	61.04774	591.23389	-28.39574	757.91888	-727.76624	-115.58607	536.40326	-75.08599	36.94198	541.78943	-74.19366	-128.76930	617.64252	805.04938	21.63125	616.92261	809.18866	
3513	35.120	-262.45251	16.57309	-14.31234	236.00319	23.21501	-1.19440	-261.67004	60.74329	583.59979	211.95920	60.24182	591.51965	-28.21982	757.76819	-727.68555	-114.97449	536.23792	-75.12488	37.83179	541.50745	-74.26231	-128.11472	617.63501	805.08881	22.42608	616.84106	809.13568	
3514	35.130	-261.39783	16.46151	-13.90722	236.97432	23.25686	-0.73400	-260.85797	59.96962	583.74194	213.05539	59.63339	591.76147	-27.87650	757.48584	-727.58276	-113.95363	535.80725	-75.09757	38.63171	541.17999	-74.23563	-126.88766	617.41211	805.21375	23.63872	616.78149	809.07349	
3515	35.140	-260.68506	16.69982	-13.79787	237.99129	23.21173	-0.70178	-259.68671	59.07925	584.06824	213.88811	58.54819	591.87396	-27.52511	757.13940	-727.56244	-113.00571	535.33099	-75.01669	39.72065	540.65778	-74.01365	-126.03120	617.43195	805.22650	24.31752	616.78644	809.10480	
3516	35.150	-259.45724	16.87723	-13.68746	239.19478	23.21673	-0.49655	-258.79330	58.37156	584.29388	215.26131	57.77573	592.02258	-27.16317	756.86487	-727.48865	-112.02742	535.01831	-74.77538	40.51617	540.35437	-74.00710	-125.21505	617.31256	805.29187	25.32840	616.48444	809.26288	
3517	35.160	-258.14932	16.69550	-13.22993	240.17328	23.09770	-0.27755	-257.49442	57.45951	584.52045	216.07048	57.04216	592.25171	-26.87723	756.59851	-727.30865	-111.19978	534.93579	-74.77898	41.41235	540.30365	-74.03266	-125.23083	617.65131	805.41376	26.18403	616.20172	809.34363	
3518	35.170	-257.39435	17.12272	-13.07048	241.61748	23.29506	-0.23736	-256.57181	56.71035	584.67737	217.30331	56.15088	592.62189	-26.26346	756.00208	-726.75439	-110.40175	534.93488	-74.78944	42.37660	540.41486	-74.04529	-124.47825	617.42224	805.56561	27.35438	615.70874	809.43414	
3519	35.180	-255.84221	17.05875	-13.15357	242.25291	23.35583	0.13115	-255.36839	55.74689	585.07239	218.80740	55.07550	592.92285	-25.59640	754.79523	-726.30908	-109.36121	535.08856	-74.67450	43.22335	540.52612	-73.90911	-123.00768	616.74603	806.24396	28.48795	615.18140	809.63257	
3520	35.190	-254.92844	17.06891	-12.67186	243.54614	23.60362	0.42841	-253.96785	54.54763	585.33783	219.59196	54.21846	593.18884	-25.32146	753.35083	-726.05957	-108.31450	535.34637	-74.58144	44.23124	540.57947	-73.72332	-121.77847	616.11035	806.56714	29.54945	614.47778	809.58820	
3521	35.200	-254.15994	17.06356	-12.39644	244.45021	23.93432	0.62512	-253.22395	53.77067	585.48181	220.89825	53.46210	593.45453	-25.22273	750.90161	-725.89331	-107.52198	535.46124	-74.45177	45.14058	540.57056	-73.64304	-120.95036	615.55554	805.94312	30.75391	614.02271	809.86084	
3522	35.210	-252.80498	17.18430	-12.09497	245.72154	23.62526	0.85601	-252.06764	52.75368	585.84766	222.13007	52.76131	594.01398	-24.50025	748.08844	-725.74658	-106.56345	535.51746	-74.38363	46.54128	540.21179	-72.89371	-119.71835	615.22009	806.10114	31.67403	613.66901	809.74823	
3523	35.220	-251.51512	17.20724	-11.81891	246.69106	23.81253	1.04831	-250.93106	51.86827	586.19263	222.87538	51.27108	594.01099	-24.01915	744.86029	-725.76337	-105.45760	535.32074	-74.21355	47.54070	540.14429	-72.75996	-117.55975	614.03796	806.31152	32.89862	613.25726	810.28735	
3524	35.230	-250.75998	17.40221	-11.48232	247.83966	23.63999	1.43116	-249.51802	50.71103	586.52594	224.00629	50.25919	594.26416	-23.40591	741.66791	-725.77570	-104.36257	535.12787	-73.87627	48.38192	540.43201	-73.26380	-116.74249	613.88751	806.55713	33.91954	612.90753	810.43427	
3525	35.240	-249.62292	17.32465	-11.21275	248.38968	23.75787	1.45165	-248.65326	49.87218	586.80017	225.22878	49.46688	594.57867	-22.79108	738.83124	-725.94556	-103.45719	534.76978	-73.74033	49.31557	540.07971	-72.76606	-115.45470	613.56165	806.72876	34.96310	612.75543	810.55835	
3526	35.250	-248.75467	17.48639	-10.87032	250.14272	24.12447	1.95290	-247.50903	48.98697	587.05463	226.40137	48.20784	594.92322	-22.18916	735.61804	-725.81604	-102.27666	534.18573	-73.58299	50.52867	539.49219	-72.88609	-114.67518	613.55225	806.31488	36.18601	612.55627	810.64087	
3527	35.260	-247.17134	17.55495	-10.57580	251.20236	24.08321	2.28346	-246.14748	47.59520	587.41803	227.56813	47.06895	595.10785	-21.58357	733.08136	-725.85443	-101.10815	533.54230	-73.27039	51.58105	538.79834	-72.40160	-112.80098	613.43890	806.97028	37.36520	612.68726	810.64398	
3528	35.270	-246.36536	17.72397	-10.45749	252.33638	23.96799	2.68512	-245.15126	46.70205	587.45142	228.77022	46.05278	595.51550	-20.92487	730.73492	-725.80206	-100.20242	532.97351	-73.29910	52.84518	538.04065	-72.51994	-111.94151	613.57178	807.05182	38.78244	612.78082	810.97235	
3529	35.280	-245.23921	17.63317	-9.94512	253.40773	23.89186	2.88137	-244.20013	45.52419	587.69885	229.98186	45.07211	595.78516	-20.28599	728.82129	-725.81641	-99.09387	532.12024	-73.03497	53.67011	537.10919	-72.02705	-110.56637	613.50409	807.33514	39.65578	612.80548	811.04053	
3530	35.290	-244.05722	17.76461	-9.63076	254.47177	23.96702	3.19359	-242.87070	44.27821	588.02777	231.40182	44.19333	596.14771	-19.34455	727.22467	-725.73157	-97.76882	531.27441	-72.85221	54.82842	536.23804	-72.14068	-109.71261	613.47327	807.26221	41.04437	612.58386	811.12305	
3531	35.300	-242.89641	17.93196	-9.51857	255.72000	24.10665	3.42559	-241.45137	42.97989	588.30933	231.86649	42.72393	596.06213	-18.52255	725.80328	-725.65948	-96.76228	530.46222	-72.67499	55.74501	535.58875	-72.12664	-108.66856	613.18854	807.11664	41.93148	612.26233	811.20551	
3532	35.310	-241.84990	17.92006	-8.93471	257.06427	24.20233	3.87031	-240.70200	42.33251	588.49646	233.44501	41.68380	596.50995	-17.67734	725.07227	-725.65405	-95.49263	529.70416	-72.37298	57.24127	534.85944	-71.86311	-107.80225	613.10474	807.01483	43.28852	611.75488	811.36682	
3533	35.320	-240.52921	17.99270	-8.74076	257.84653	24.02387	4.17014	-239.43645	41.12872	588.86151	234.39520	40.30166	596.85956	-16.69457	724.54694	-725.53552	-94.38570	529.16754	-72.11168	58.25778	534.24066	-71.65427	-107.53319	613.72607	807.01331	44.26796	611.31909	811.50146	
3534	35.330	-239.70610	18.22275	-8.43102	259.17596	24.26039	4.77947	-238.32840	39.78728	589.13251	235.52544	39.08032	597.14459	-15.77146	724.25781	-725.28723	-93.16178	528.63568	-72.17183	59.44475	533.75812	-71.40347	-106.06377	612.41998	807.63501	45.64995	610.60132	811.54388	
3535	35.340	-238.20773	18.23890	-7.97148	259.75095	24.49413	4.87641	-237.04723	38.40396	589.52240	236.76898	37.93555	597.57037	-14.97517	724.23499	-725.07336	-91.92614	528.21930	-71.91492	60.89811	533.07159	-71.02888	-103.89749	610.96716	808.11505	46.78259	609.64679	812.13824	
